<?xml version="1.0" encoding="utf-8"?>
<!-- Generator: Adobe Illustrator 17.0.0, SVG Export Plug-In . SVG Version: 6.00 Build 0)  -->
<!DOCTYPE svg PUBLIC "-//W3C//DTD SVG 1.1//EN" "http://www.w3.org/Graphics/SVG/1.1/DTD/svg11.dtd">
<svg version="1.1" id="Layer_1" xmlns="http://www.w3.org/2000/svg" xmlns:xlink="http://www.w3.org/1999/xlink" x="0px" y="0px"
	 width="273.795px" height="52.592px" viewBox="0 0 273.795 52.592" enable-background="new 0 0 273.795 52.592"
	 xml:space="preserve">
<g>
	<path fill="none" stroke="#B8529E" stroke-width="0.25" stroke-linecap="round" stroke-miterlimit="10" d="M0.853-35.855"/>
</g>
<g>
	<g>
		<path fill="#231F20" d="M0.754,16.012L0.754,16.012v0.005h30.027c0.009,0,0.026,0,0.03,0c0.411,0,0.749-0.341,0.749-0.752
			c0-0.28-0.149-0.518-0.369-0.644L16.29,0.212c-0.077-0.066-0.159-0.121-0.25-0.159c-0.264-0.108-0.577-0.051-0.796,0.159
			L0.231,14.724c-0.222,0.21-0.287,0.537-0.175,0.822C0.175,15.826,0.446,16.012,0.754,16.012z"/>
	</g>
	<g>
		<path fill="#231F20" d="M15.373,34.941c0.215,0.215,0.565,0.215,0.78,0l5.316-5.314c0.215-0.215,0.215-0.56,0-0.775l-5.316-5.318
			c-0.215-0.215-0.565-0.215-0.78,0l-5.316,5.318c-0.217,0.215-0.217,0.56,0,0.775L15.373,34.941z"/>
	</g>
	<g>
		<path fill="#231F20" d="M15.373,52.431c0.215,0.215,0.565,0.215,0.78,0l5.316-5.323c0.215-0.215,0.215-0.56,0-0.775l-5.316-5.313
			c-0.215-0.219-0.565-0.219-0.78,0l-5.316,5.313c-0.217,0.215-0.217,0.56,0,0.775L15.373,52.431z"/>
	</g>
	<g>
		<path fill="#231F20" d="M7.165,43.742c0.215,0.215,0.56,0.215,0.775,0l5.316-5.323c0.217-0.219,0.217-0.56,0-0.78L7.94,32.326
			c-0.215-0.215-0.56-0.215-0.775,0l-5.32,5.313c-0.217,0.219-0.217,0.56,0,0.78L7.165,43.742z"/>
	</g>
	<g>
		<path fill="#231F20" d="M23.595,43.742c0.215,0.215,0.56,0.215,0.78,0l5.311-5.323c0.222-0.219,0.222-0.56,0-0.78l-5.311-5.313
			c-0.219-0.215-0.565-0.215-0.78,0l-5.32,5.313c-0.213,0.219-0.213,0.56,0,0.78L23.595,43.742z"/>
	</g>
	<g>
		<path fill="#231F20" d="M24.37,25.799l5.325-5.323c0.222-0.224,0.222-0.565,0-0.784H18.263c-0.215,0.219-0.215,0.56,0,0.784
			l5.332,5.323C23.805,26.013,24.148,26.013,24.37,25.799z"/>
	</g>
	<g>
		<path fill="#231F20" d="M7.94,25.799l5.327-5.323c0.215-0.224,0.215-0.565,0-0.784H1.833c-0.215,0.219-0.215,0.56,0,0.784
			l5.332,5.323C7.375,26.013,7.725,26.013,7.94,25.799z"/>
	</g>
	<g>
		<path fill="#231F20" d="M4.853,28.932l-4.237-4.225c-0.164-0.168-0.441-0.168-0.616,0v9.081c0.175,0.163,0.453,0.163,0.616,0
			l4.237-4.235C5.017,29.385,5.017,29.104,4.853,28.932z"/>
	</g>
	<g>
		<path fill="#231F20" d="M26.621,29.553l4.237,4.23c0.163,0.168,0.441,0.168,0.609,0v-9.076c-0.168-0.168-0.446-0.168-0.609,0
			l-4.237,4.23C26.45,29.104,26.45,29.38,26.621,29.553z"/>
	</g>
</g>
<g>
	<g>
		<path fill="#231F20" d="M62.68,51.758c0,0.379-0.228,0.568-0.683,0.568h-0.513c-0.19,0-0.333-0.049-0.427-0.143
			c-0.096-0.096-0.162-0.18-0.199-0.256c-0.38-0.645-0.74-0.977-1.082-0.996c-0.341-0.019-0.664,0.066-0.967,0.256
			c-0.381,0.229-0.846,0.418-1.395,0.57c-0.551,0.15-1.139,0.283-1.766,0.398c-0.625,0.113-1.252,0.199-1.878,0.256
			c-0.626,0.057-1.224,0.084-1.793,0.084c-2.694,0-4.876-0.701-6.546-2.105c-1.67-1.402-2.504-3.566-2.504-6.488V8.539
			c0-1.443,0.236-2.705,0.711-3.785c0.475-1.082,1.139-1.975,1.992-2.676c0.854-0.703,1.879-1.225,3.074-1.566
			C49.902,0.17,51.201,0,52.605,0c1.404,0,2.713,0.17,3.928,0.512c1.215,0.342,2.277,0.863,3.187,1.566
			c0.911,0.701,1.631,1.594,2.163,2.676c0.531,1.08,0.797,2.342,0.797,3.785v3.869h-2.505c-0.227,0-0.522-0.057-0.882-0.17
			c-0.36-0.113-0.702-0.275-1.025-0.484c-0.322-0.207-0.607-0.465-0.853-0.768c-0.248-0.305-0.371-0.664-0.371-1.082V8.766
			c0-0.758-0.133-1.395-0.398-1.906c-0.266-0.512-0.607-0.93-1.023-1.252c-0.418-0.322-0.893-0.561-1.424-0.713
			c-0.531-0.15-1.063-0.226-1.594-0.226c-1.063,0-2.002,0.305-2.817,0.91c-0.816,0.607-1.224,1.67-1.224,3.188v34.852
			c0,1.518,0.407,2.58,1.224,3.188c0.815,0.607,1.755,0.91,2.817,0.91c0.493,0,1.006-0.074,1.537-0.227
			c0.531-0.152,1.015-0.389,1.451-0.713c0.435-0.32,0.787-0.738,1.053-1.252c0.266-0.512,0.398-1.146,0.398-1.906v-13.08
			c0-0.721-0.304-1.176-0.91-1.367c-0.531-0.113-0.94-0.379-1.224-0.797c-0.284-0.416-0.427-1.156-0.427-2.219v-1.367h6.773
			c0.228,0,0.521,0.086,0.883,0.256c0.359,0.17,0.54,0.541,0.54,1.111V51.758z"/>
	</g>
	<g>
		<path fill="#231F20" d="M73.45,4.981c-0.171,0.172-0.256,0.371-0.256,0.598v18.383c0,0.533,0.284,0.797,0.854,0.797h6.773
			c0.189,0,0.389,0.068,0.598,0.199c0.207,0.135,0.313,0.352,0.313,0.656v3.045c0,0.531-0.285,0.797-0.854,0.797h-6.83
			c-0.57,0-0.854,0.266-0.854,0.797V47.09c0,0.531,0.228,0.797,0.683,0.797h5.692c0.417,0,0.626-0.248,0.626-0.74
			c0-0.607,0.256-1.082,0.769-1.424c0.513-0.342,1.204-0.512,2.077-0.512h2.164v5.863c0,0.418-0.143,0.76-0.428,1.023
			c-0.284,0.266-0.635,0.399-1.053,0.399h-3.529h-11.1H65.68v-1.479c0-0.836,0.104-1.471,0.313-1.908
			c0.207-0.436,0.502-0.748,0.882-0.94c0.493-0.264,0.739-0.662,0.739,0.113V6.887c0-1.648-0.076-1.914-0.227-2.106
			c-0.152-0.189-0.323-0.34-0.513-0.455c-0.38-0.189-0.675-0.492-0.882-0.91C65.785,2.998,65.68,2.41,65.68,1.65V0h18.044
			c0.455,0,0.816,0.135,1.082,0.398c0.265,0.266,0.399,0.551,0.399,0.854v6.035h-2.107c-0.797,0-1.472-0.105-2.021-0.314
			c-0.551-0.207-0.826-0.635-0.826-1.279c0-0.229-0.057-0.445-0.17-0.654c-0.114-0.209-0.323-0.315-0.627-0.315h-5.464
			C73.8,4.725,73.621,4.811,73.45,4.981z"/>
	</g>
	<g>
		<path fill="#231F20" d="M111.558,0.598c0.342,0.398,0.514,1.072,0.514,2.021v1.764v3.131h-3.074c-0.531,0-0.949-0.18-1.252-0.541
			c-0.305-0.359-0.455-0.844-0.455-1.451c0-0.492-0.209-0.74-0.627-0.74h-2.789c-0.229,0-0.428,0.076-0.598,0.229
			c-0.172,0.152-0.256,0.398-0.256,0.74v41.282c0,0.381,0.057,0.646,0.17,0.797c0.113,0.152,0.266,0.305,0.455,0.457
			c0.305,0.227,0.598,0.549,0.883,0.967c0.285,0.418,0.428,0.949,0.428,1.594v1.65h-9.449v-1.65c0-0.645,0.15-1.176,0.455-1.594
			c0.303-0.418,0.605-0.74,0.91-0.967c0.152-0.152,0.285-0.305,0.398-0.457c0.115-0.15,0.172-0.416,0.172-0.797V5.578
			c0-0.266-0.096-0.465-0.285-0.598c-0.191-0.133-0.381-0.199-0.568-0.199h-2.506c-0.152,0-0.332,0.057-0.541,0.172
			c-0.209,0.113-0.313,0.322-0.313,0.625c0,0.646-0.17,1.129-0.512,1.451c-0.342,0.324-0.969,0.484-1.879,0.484H88.22V4.041v-1.65
			c0-0.873,0.236-1.488,0.713-1.85C89.406,0.18,90.136,0,91.125,0h18.557C110.591,0,111.216,0.199,111.558,0.598z"/>
	</g>
	<g>
		<path fill="#231F20" d="M133.909,52.497c-1.405,0-2.704-0.17-3.899-0.512c-1.195-0.342-2.22-0.873-3.073-1.594
			c-0.854-0.721-1.529-1.623-2.021-2.703c-0.494-1.082-0.74-2.344-0.74-3.785V8.537c0-1.441,0.256-2.703,0.769-3.785
			c0.513-1.08,1.204-1.973,2.077-2.674c0.873-0.703,1.917-1.225,3.132-1.566C131.366,0.17,132.674,0,134.079,0
			s2.704,0.17,3.899,0.512c1.195,0.342,2.238,0.863,3.131,1.566c0.891,0.701,1.594,1.594,2.106,2.674
			c0.512,1.082,0.768,2.344,0.768,3.785v4.269h-2.447c-0.949,0-1.718-0.293-2.306-0.883c-0.588-0.588-0.882-1.336-0.882-2.248V8.879
			c0-1.518-0.446-2.598-1.338-3.244c-0.892-0.645-1.869-0.967-2.932-0.967s-2.04,0.322-2.931,0.967
			c-0.893,0.646-1.338,1.727-1.338,3.244v34.965c0,1.178,0.417,2.127,1.252,2.848c0.834,0.721,1.783,1.08,2.847,1.08
			c0.53,0,1.061-0.094,1.594-0.283c0.53-0.189,1.005-0.465,1.423-0.826c0.417-0.359,0.759-0.777,1.024-1.252
			c0.265-0.475,0.398-0.996,0.398-1.566v-0.967c0-0.873,0.256-1.623,0.769-2.248c0.512-0.627,1.28-0.939,2.306-0.939h2.561v4.781
			c0,1.443-0.266,2.676-0.797,3.699c-0.531,1.025-1.252,1.861-2.163,2.506c-0.91,0.645-1.973,1.109-3.188,1.395
			C136.621,52.354,135.312,52.497,133.909,52.497z"/>
	</g>
	<g>
		<path fill="#231F20" d="M168.556,48.114c0.304,0.191,0.599,0.428,0.883,0.711c0.284,0.285,0.427,0.77,0.427,1.453v2.219h-4.725
			c-0.987,0-1.717-0.256-2.191-0.768c-0.475-0.512-0.711-1.186-0.711-2.021V33.668c0-1.328-0.276-2.361-0.826-3.102
			s-1.433-1.111-2.646-1.111h-3.529c-0.493,0-0.74,0.267-0.74,0.797v16.779c0,0.381,0.058,0.646,0.171,0.797
			c0.114,0.152,0.247,0.305,0.398,0.457c0.304,0.227,0.606,0.549,0.911,0.967c0.303,0.418,0.455,0.949,0.455,1.594v1.65h-9.449
			v-1.65c0-0.645,0.151-1.176,0.456-1.594c0.303-0.418,0.606-0.74,0.91-0.967c0.151-0.152,0.285-0.305,0.398-0.457
			c0.114-0.15,0.171-0.416,0.171-0.797V5.465c0-0.303-0.057-0.541-0.171-0.711c-0.113-0.172-0.247-0.293-0.398-0.371
			c-0.304-0.189-0.598-0.492-0.882-0.91c-0.285-0.418-0.427-1.025-0.427-1.822V0h11.726c1.631,0,3.017,0.238,4.155,0.713
			c1.139,0.475,2.078,1.129,2.817,1.963c0.74,0.836,1.281,1.832,1.622,2.988c0.342,1.158,0.513,2.439,0.513,3.842v10.899
			c0,1.215-0.247,2.324-0.74,3.33c-0.493,1.006-1.138,1.832-1.935,2.476c-0.342,0.342-0.305,0.721,0.113,1.139
			c0.873,0.646,1.518,1.537,1.936,2.676c0.417,1.139,0.626,2.41,0.626,3.813V47.09c0,0.379,0.065,0.617,0.199,0.711
			C168.206,47.897,168.367,48,168.556,48.114z M162.239,9.107c0-1.328-0.276-2.381-0.826-3.158c-0.55-0.777-1.433-1.168-2.646-1.168
			h-3.358c-0.607,0-0.911,0.268-0.911,0.797v18.584c0,0.19,0.076,0.34,0.229,0.455c0.15,0.113,0.303,0.17,0.455,0.17h3.586
			c1.214,0,2.097-0.398,2.646-1.195s0.826-1.859,0.826-3.188V9.107z"/>
	</g>
	<g>
		<path fill="#231F20" d="M196.773,48.227c0.313,0.252,0.735,0.523,1.021,0.996c0.284,0.477,0.289,1.035,0.289,1.68v1.594h-9.095
			v-1.537c0-0.682-0.022-1.193,0.243-1.611c0.265-0.416,0.732-0.635,0.915-0.783c0.189-0.154,0.54-0.523,0.674-0.676
			c0.132-0.152,0.199-0.398,0.199-0.74c-0.077-0.721-2.201-16.404-2.201-16.594c-0.076-0.457-0.228-0.76-0.455-0.912
			c-0.228-0.15-0.512-0.227-0.854-0.227h-4.474c-0.607,0-0.949,0.379-1.024,1.139c-0.038,0.189-2.099,15.789-2.174,16.51
			c0,0.342,0.037,0.588,0.113,0.74c0.076,0.152,0.213,0.297,0.398,0.455c0.379,0.326,0.788,0.609,1.054,1.025
			c0.266,0.418,0.279,0.992,0.279,1.674v1.537h-8.816v-1.479c0-0.646,0.033-1.205,0.318-1.717c0.284-0.514,0.651-0.789,0.991-1.074
			c0.186-0.156,0.36-0.313,0.513-0.483c0.15-0.172,0.265-0.408,0.341-0.713c1.063-5.842,5.863-41.358,5.863-41.395
			c0.037-0.305,0.057-0.578,0.057-0.826c0-0.246-0.095-0.408-0.284-0.484c-0.949-0.379-1.423-1.385-1.423-3.016V0h7.627
			c0.873,0,1.574,0.256,2.107,0.77c0.531,0.512,0.834,1.109,0.91,1.793c0,0.152,0.095,0.76,0.285,1.82
			c0.189,1.064,4.648,36.389,5.749,42.649c0.075,0.305,0.189,0.541,0.342,0.713C196.413,47.915,196.585,48.075,196.773,48.227z
			 M187.109,24.788c0.265,0,0.474-0.096,0.626-0.285c0.151-0.189,0.208-0.398,0.171-0.627c0-0.037-2.403-17.956-2.403-17.956h-0.113
			c0,0-2.201,16.381-2.296,16.989c-0.095,0.607-0.142,0.93-0.142,0.967c-0.038,0.268,0.018,0.484,0.171,0.656
			c0.15,0.17,0.341,0.256,0.569,0.256H187.109z"/>
	</g>
	<g>
		<path fill="#231F20" d="M246.945,0.598c0.342,0.398,0.513,1.072,0.513,2.021v1.764v3.131h-3.074c-0.531,0-0.948-0.18-1.252-0.541
			c-0.304-0.359-0.455-0.844-0.455-1.451c0-0.492-0.209-0.74-0.626-0.74h-2.789c-0.228,0-0.428,0.076-0.598,0.229
			c-0.171,0.152-0.257,0.398-0.257,0.74v41.377c0,0.381,0.058,0.646,0.171,0.797c0.114,0.152,0.266,0.305,0.455,0.457
			c0.304,0.227,0.598,0.549,0.883,0.967c0.284,0.418,0.427,0.949,0.427,1.594v1.65h-9.449v-1.65c0-0.644,0.151-1.176,0.456-1.594
			c0.303-0.418,0.607-0.74,0.91-0.967c0.151-0.152,0.285-0.305,0.398-0.457c0.114-0.15,0.171-0.416,0.171-0.797V5.578
			c0-0.266-0.095-0.465-0.284-0.598c-0.19-0.133-0.38-0.199-0.569-0.199h-2.505c-0.152,0-0.333,0.057-0.541,0.172
			c-0.209,0.113-0.312,0.322-0.312,0.625c0,0.646-0.171,1.129-0.513,1.451c-0.342,0.324-0.968,0.484-1.878,0.484h-2.619V4.041v-1.65
			c0-0.873,0.237-1.488,0.712-1.85C224.792,0.18,225.523,0,226.51,0h18.557C245.978,0,246.604,0.199,246.945,0.598z"/>
	</g>
	<g>
		<path fill="#231F20" d="M220.095,0.389c0.341,0.246,0.512,0.598,0.512,1.053v5.977h-1.878c-0.797,0-1.462-0.15-1.992-0.455
			c-0.532-0.303-0.797-0.76-0.797-1.367c0-0.529-0.438-0.797-1.309-0.797h-5.18c-0.228,0-0.427,0.078-0.598,0.228
			c-0.171,0.152-0.257,0.361-0.257,0.627v18.301c0,0.342,0.066,0.57,0.199,0.684c0.133,0.113,0.351,0.172,0.655,0.172h6.888
			c0.53,0,0.797,0.283,0.797,0.854v3.017c0,0.531-0.248,0.797-0.74,0.797h-6.944c-0.228,0-0.427,0.076-0.598,0.227
			c-0.171,0.152-0.257,0.361-0.257,0.627v16.699c0,0.381,0.058,0.646,0.171,0.797c0.114,0.152,0.266,0.305,0.456,0.457
			c0.303,0.227,0.598,0.549,0.882,0.967c0.284,0.418,0.427,0.949,0.427,1.594v1.65h-9.449v-1.65c0-0.645,0.151-1.176,0.456-1.594
			c0.303-0.418,0.606-0.74,0.91-0.967c0.151-0.152,0.285-0.305,0.398-0.457c0.114-0.15,0.171-0.416,0.171-0.797V5.596
			c0-0.605-0.228-1.004-0.683-1.195c-0.38-0.19-0.684-0.492-0.911-0.91c-0.228-0.418-0.342-1.063-0.342-1.936V0.018h18.045
			C219.43,0.018,219.753,0.143,220.095,0.389z"/>
	</g>
	<g>
		<path fill="#231F20" d="M273.795,0v1.709c0,0.644-0.133,1.176-0.398,1.594c-0.266,0.418-0.55,0.721-0.854,0.91
			c-0.152,0.113-0.342,0.248-0.569,0.398c-0.228,0.152-0.38,0.381-0.455,0.684c-0.038,0.076-0.162,0.436-0.37,1.082
			c-0.209,0.645-0.465,1.461-0.768,2.447s-0.654,2.106-1.053,3.357c-0.398,1.253-0.807,2.526-1.224,3.815
			c-0.987,3.035-2.088,6.453-3.302,10.246v20.828v0.057c0,0.381,0.047,0.646,0.143,0.797c0.094,0.152,0.236,0.285,0.427,0.398
			c0.303,0.229,0.606,0.551,0.91,0.969c0.304,0.418,0.456,0.949,0.456,1.594v1.707h-9.506v-1.707c0-0.645,0.151-1.176,0.455-1.594
			s0.606-0.74,0.911-0.969c0.19-0.113,0.331-0.246,0.427-0.398c0.094-0.15,0.142-0.398,0.142-0.738V26.243
			c-1.215-3.871-2.315-7.344-3.301-10.418c-0.418-1.289-0.825-2.571-1.224-3.842c-0.398-1.271-0.75-2.398-1.054-3.387
			c-0.304-0.986-0.56-1.793-0.769-2.418c-0.209-0.627-0.313-0.977-0.313-1.055c-0.077-0.227-0.199-0.416-0.37-0.568
			c-0.171-0.15-0.295-0.266-0.37-0.342c-0.304-0.19-0.598-0.492-0.882-0.91c-0.285-0.418-0.428-0.949-0.428-1.594V0h9.222v1.879
			c0,0.684-0.124,1.195-0.37,1.537c-0.247,0.342-0.521,0.607-0.825,0.797c-0.19,0.152-0.38,0.305-0.569,0.455
			c-0.19,0.152-0.247,0.381-0.171,0.684c0,0.076,0.066,0.342,0.199,0.797c0.133,0.455,0.294,1.025,0.484,1.707
			c0.19,0.684,0.407,1.443,0.654,2.277c0.246,0.836,0.483,1.67,0.712,2.504c0.569,2.012,1.195,4.27,1.878,6.774h0.342
			c0.797-2.504,1.518-4.781,2.163-6.831c0.265-0.834,0.531-1.67,0.797-2.504c0.265-0.834,0.502-1.594,0.711-2.277
			c0.209-0.684,0.389-1.242,0.541-1.68c0.151-0.436,0.228-0.691,0.228-0.767c0.076-0.303,0.028-0.531-0.142-0.684
			c-0.171-0.15-0.352-0.303-0.541-0.455c-0.305-0.19-0.589-0.484-0.853-0.883c-0.267-0.398-0.398-0.94-0.398-1.621V0H273.795z"/>
	</g>
	<g>
		
			<rect x="167.014" y="26.443" transform="matrix(0.1333 0.9911 -0.9911 0.1333 189.9154 -163.2812)" fill="#231F20" width="42.597" height="0.999"/>
	</g>
</g>
</svg>
